<?xml version="1.0" encoding="UTF-8"?>
<svg width="18px" height="18px" viewBox="0 0 18 18" version="1.1" xmlns="http://www.w3.org/2000/svg" xmlns:xlink="http://www.w3.org/1999/xlink">
    <title>Artboard</title>
    <g id="Artboard" stroke="none" stroke-width="1" fill="none" fill-rule="evenodd">
        <g id="habrahabr" transform="translate(1.000000, 2.000000)" fill="#FFFFFF" fill-rule="nonzero">
            <g id="Group" transform="translate(9.000000, 9.000000) scale(-1, 1) rotate(-180.000000) translate(-9.000000, -9.000000) translate(0.000000, 0.000000)">
                <path d="M9.40909091,17.9577299 C9.13636364,17.9260274 8.67272727,17.7358121 8.38441558,17.5350294 C7.87012987,17.1863014 7.8038961,16.7213307 8.24415584,16.590998 C8.52077922,16.5064579 8.78571429,16.6367906 8.88701299,16.904501 C8.92987013,17.0136986 8.92597403,17.0313112 8.84415584,17.0911937 C8.7974026,17.1264188 8.70779221,17.1545988 8.64935065,17.1545988 C8.4974026,17.1545988 8.2987013,17.0841487 8.2987013,17.0313112 C8.2987013,16.9573386 8.41948052,16.9362035 8.4974026,16.9996086 C8.61038961,17.0911937 8.6961039,17.0383562 8.68051948,16.8833659 C8.67272727,16.7776908 8.64545455,16.7389432 8.56363636,16.7037182 C8.41948052,16.6438356 8.22857143,16.6896282 8.13116883,16.8129159 C8.06103896,16.8939335 8.05714286,16.9221135 8.0961039,17.0454012 C8.21298701,17.3976517 9.07792208,17.8590998 9.61948052,17.8590998 C9.94675325,17.8590998 10.2077922,17.630137 10.2077922,17.3483366 C10.2038961,17.1299413 9.94675325,16.6262231 9.68181818,16.3232877 L9.6038961,16.2317025 L9.19480519,16.3021526 C7.63636364,16.5733855 6.24545455,16.2951076 5.04545455,15.4708415 L4.74935065,15.2700587 L4.46103896,15.5236791 C4.12597403,15.816047 3.74415584,16.0273973 3.2961039,16.17182 L2.98051948,16.2739726 L3.11688312,16.1753425 C3.63896104,15.8019569 3.96623377,15.5342466 4.18831169,15.3017613 C4.32857143,15.1502935 4.44155844,15.0199609 4.44155844,15.0058708 C4.44155844,14.9953033 4.38311688,14.9318982 4.31298701,14.8720157 L4.18051948,14.755773 L4.04025974,14.9107632 C3.75584416,15.2277886 3.17142857,15.5553816 2.57922078,15.7279843 C2.24025974,15.830137 2.12337662,15.8266145 2.34545455,15.7244618 C2.55194805,15.6293542 3,15.3440313 3.24935065,15.1502935 C3.47532468,14.9776908 3.77922078,14.6712329 3.77922078,14.6183953 C3.77922078,14.6043053 3.63506494,14.5338552 3.45584416,14.4634051 C3.28051948,14.392955 3.04675325,14.2802348 2.93766234,14.2097847 L2.73896104,14.0900196 L2.47792208,14.2450098 C2.22857143,14.3964775 1.8038961,14.5444227 1.46103896,14.5972603 C1.31298701,14.6219178 1.32467532,14.6113503 1.67532468,14.392955 C1.87792208,14.2696673 2.13896104,14.0864971 2.25584416,13.9949119 L2.46623377,13.8223092 L2.32597403,13.653229 C2.13896104,13.4348337 1.93246753,13.0438356 1.84675325,12.7444227 C1.78051948,12.5260274 1.76883117,12.5084149 1.65194805,12.4872798 C1.58181818,12.4767123 1.38311688,12.4027397 1.21558442,12.3287671 C0.763636364,12.1244618 0.541558442,11.8849315 0.405194805,11.4587084 C0.397402597,11.4340509 0.350649351,11.4129159 0.3,11.4129159 C0.245454545,11.4129159 0.15974026,11.3812133 0.101298701,11.3389432 C0.0194805195,11.2825832 0,11.2367906 0,11.1135029 C0,10.9866928 0.0194805195,10.9444227 0.116883117,10.8704501 C0.22987013,10.78591 0.451948052,10.7084149 0.592207792,10.7084149 C0.631168831,10.7084149 0.744155844,10.6626223 0.845454545,10.6027397 C1.05974026,10.4794521 1.23506494,10.4688845 1.35584416,10.5675147 C1.65974026,10.8246575 1.38701299,11.2191781 0.790909091,11.3776908 C0.697402597,11.4023483 0.623376623,11.4410959 0.623376623,11.4657534 C0.623376623,11.5643836 0.837662338,11.8778865 0.97012987,11.9765166 C1.13376623,12.0892368 1.58181818,12.2935421 1.67532468,12.2935421 C1.72597403,12.2935421 1.73376623,12.2019569 1.72987013,11.6665362 C1.72597403,11.134638 1.71428571,11.0078278 1.64025974,10.8 C1.5974026,10.6696673 1.55844156,10.5322896 1.55844156,10.4970646 C1.55844156,10.4618395 1.47272727,10.3702544 1.37142857,10.2927593 C1.14155844,10.1201566 0.868831169,9.78199609 0.767532468,9.55655577 C0.674025974,9.34872798 0.67012987,8.98943249 0.755844156,8.77808219 C0.787012987,8.69706458 0.880519481,8.53855186 0.962337662,8.42935421 C1.11428571,8.22152642 1.62857143,7.73189824 1.8038961,7.62622309 C1.86623377,7.59099804 1.92857143,7.49941292 1.96753247,7.40078278 L2.02987013,7.23170254 L1.76103896,6.98864971 C1.56233766,6.80547945 1.47272727,6.6962818 1.41038961,6.54481409 C1.16883117,5.96360078 1.34025974,5.23091977 1.8,4.83992172 C2.09220779,4.59334638 2.36883117,4.49471624 2.74675325,4.49471624 C3.10519481,4.49471624 3.32727273,4.56516634 3.56883117,4.76594912 C3.71688312,4.88571429 3.72857143,4.88923679 4.12987013,4.90332681 C4.44155844,4.91741683 4.58961039,4.94207436 4.74545455,5.00195695 C4.85844156,5.04774951 4.95974026,5.07240705 4.97142857,5.06183953 C4.98311688,5.05127202 4.97922078,4.98434442 4.96363636,4.91389432 C4.94415584,4.80821918 4.85844156,4.70958904 4.56233766,4.43835616 C4.15324675,4.06144814 3.91948052,3.92759295 3.73636364,3.962818 C3.59220779,3.99099804 3.58051948,3.90293542 3.72077922,3.8183953 C3.93506494,3.69158513 4.23116883,3.85362035 4.64025974,4.318591 C4.74935065,4.44540117 4.84675325,4.54050881 4.85844156,4.52994129 C4.8974026,4.49471624 4.61688312,3.96634051 4.41818182,3.69863014 C4.22727273,3.43796477 4.19220779,3.34637965 4.28181818,3.34637965 C4.39090909,3.34637965 4.8974026,4.1776908 5.01038961,4.54755382 C5.04545455,4.66027397 5.11948052,4.79765166 5.17792208,4.85753425 L5.27922078,4.96320939 L5.54415584,4.90684932 C5.70779221,4.86810176 5.80519481,4.82935421 5.80519481,4.79765166 C5.80519481,4.74129159 5.08831169,3.92407045 4.42987013,3.23013699 C3.56103896,2.31428571 2.78571429,1.66614481 2.64935065,1.74363992 C2.55584416,1.7964775 2.64935065,2.15225049 2.85974026,2.52915851 C3,2.77925636 2.93376623,2.76164384 2.73896104,2.49393346 C2.44285714,2.08180039 2.24415584,1.64148728 2.26753247,1.45479452 C2.2987013,1.20469667 2.72727273,1.39138943 3.41298701,1.9444227 C3.93506494,2.36360078 4.6987013,3.14911937 5.43896104,4.0297456 C5.84025974,4.50176125 5.82857143,4.50528376 5.78571429,3.84657534 L5.75844156,3.41682975 L5.33766234,2.91311155 C4.8038961,2.27906067 4.35974026,1.8 3.91948052,1.38434442 C3.73246753,1.20469667 3.59220779,1.05675147 3.61558442,1.05675147 C3.68571429,1.05675147 4.11038961,1.35968689 4.32467532,1.57103718 C4.57402597,1.81056751 5.09220779,2.38121331 5.46623377,2.82857143 L5.72727273,3.13855186 L5.72727273,2.96947162 C5.72727273,2.74755382 5.62987013,1.92328767 5.55194805,1.49001957 C5.42337662,0.764383562 5.21298701,0.225440313 5.00649351,0.0774951076 L4.8974026,0 L5.00649351,0 C5.17792208,0 5.35714286,0.200782779 5.47012987,0.521330724 C5.67272727,1.10254403 5.84415584,2.06771037 5.90649351,3.00821918 L5.93376623,3.39217221 L6.3038961,3.87123288 C6.50649351,4.13542074 6.68571429,4.36438356 6.70519481,4.38199609 C6.72467532,4.39960861 6.8025974,4.36086106 6.89220779,4.28688845 C7.11818182,4.1037182 7.22727273,4.06144814 7.58181818,4.03679061 C7.94025974,4.00861057 8.0961039,4.04735812 8.25584416,4.20234834 L8.34545455,4.29393346 L8.54805195,4.19882583 C8.65714286,4.14598826 8.83636364,4.06497065 8.94545455,4.02270059 L9.14805195,3.94520548 L9.21038961,3.63874755 C9.33116883,3.04344423 9.27662338,2.40587084 9.07402597,2.01135029 C8.86363636,1.59921722 8.55584416,1.34207436 8.06493506,1.16594912 L7.85064935,1.08845401 L8.02597403,1.10958904 C8.28311688,1.14129159 8.66103896,1.31037182 8.85974026,1.49001957 C9.07012987,1.68375734 9.25324675,1.99726027 9.33506494,2.31428571 C9.40909091,2.5925636 9.41688312,3.39921722 9.35454545,3.69510763 C9.33116883,3.80078278 9.31558442,3.89236791 9.32337662,3.89589041 C9.32727273,3.90293542 9.4012987,3.89236791 9.48701299,3.87475538 C9.71688312,3.82544031 10.1220779,3.83248532 10.3636364,3.89236791 C10.6441558,3.9592955 10.8623377,4.1037182 10.9792208,4.29745597 C11.061039,4.43835616 11.0688312,4.49119374 11.0571429,4.74833659 C11.0415584,5.01956947 11.0220779,5.07240705 10.838961,5.3964775 L10.6402597,5.75225049 L10.8428571,5.92133072 C10.9714286,6.03052838 11.0805195,6.09041096 11.1467532,6.09393346 C11.2948052,6.09393346 11.6103896,5.93894325 11.8012987,5.76986301 C12.1051948,5.49863014 12.1480519,5.28023483 11.9649351,4.95264188 C11.8402597,4.72367906 11.887013,4.70958904 12.0545455,4.92446184 C12.2064935,5.12172211 12.2376623,5.38943249 12.1246753,5.58669276 C11.9883117,5.82622309 11.6571429,6.06927593 11.3142857,6.17847358 L11.1857143,6.21722114 L11.3415584,6.39334638 C11.4272727,6.49197652 11.5558442,6.66810176 11.6337662,6.78786693 C11.7077922,6.90410959 11.7935065,7.00978474 11.8207792,7.02035225 C11.8519481,7.03091977 12.1792208,6.72446184 12.6428571,6.24892368 C13.0675325,5.81565558 13.4298701,5.45988258 13.4454545,5.45988258 C13.4571429,5.45988258 13.4922078,5.48101761 13.5155844,5.50919765 C13.5545455,5.55146771 13.425974,5.70998043 12.7948052,6.39334638 C12.374026,6.85127202 12.0350649,7.22818004 12.0428571,7.23170254 C12.0506494,7.23522505 12.1675325,7.30567515 12.3,7.39021526 C12.4324675,7.47123288 12.5688312,7.53816047 12.6,7.53816047 C12.7753247,7.53816047 13.1688312,6.837182 13.1688312,6.52015656 C13.1688312,6.38982387 13.2311688,6.31232877 13.2896104,6.36516634 C13.3519481,6.42152642 13.2428571,6.87945205 13.0987013,7.15068493 C13.0402597,7.26692759 12.9935065,7.36203523 13.0012987,7.36203523 C13.0090909,7.36203523 13.1337662,7.30919765 13.2779221,7.24227006 C13.9792208,6.92524462 14.5948052,6.82309198 14.9337662,6.97103718 C15.038961,7.01682975 15.1324675,7.09080235 15.1753247,7.16477495 C15.2454545,7.28101761 15.2532468,7.28454012 15.561039,7.30919765 C15.9584416,7.33737769 16.5818182,7.44657534 16.9987013,7.55577299 C17.3766234,7.65440313 18.0077922,7.85870841 17.9922078,7.87632094 C17.9844156,7.88336595 17.7701299,7.8481409 17.5168831,7.80234834 C16.6948052,7.65088063 15.9155844,7.59804305 14.8246753,7.61917808 C13.9012987,7.63679061 13.7337662,7.65440313 13.0480519,7.78121331 L12.825974,7.82348337 L12.9506494,8.04187867 C13.0207792,8.16164384 13.087013,8.29549902 13.0987013,8.34129159 C13.1220779,8.41878669 13.1337662,8.41878669 13.7103896,8.41878669 C15.0155844,8.41878669 16.2662338,8.53150685 16.5896104,8.67592955 C16.8818182,8.80626223 16.912987,9.00704501 16.6597403,9.11624266 C16.5428571,9.16908023 16.3285714,9.12681018 16.2428571,9.03170254 C16.1844156,8.96477495 16.2506494,8.91193738 16.3948052,8.91193738 C16.4454545,8.91193738 16.4766234,8.89784736 16.4649351,8.88375734 C16.4376623,8.84148728 16.0909091,8.77808219 15.6428571,8.73581213 C15.2064935,8.69706458 13.2545455,8.62309198 13.2155844,8.64422701 C13.2,8.65127202 13.1922078,8.7851272 13.2,8.94011742 L13.2116883,9.2183953 L13.425974,9.26066536 C13.8077922,9.33816047 14.2480519,9.56712329 14.5519481,9.84187867 C15.0350649,10.2821918 15.2142857,10.7048924 15.261039,11.5009785 C15.2805195,11.8849315 15.2961039,11.9448141 15.412987,12.1526419 C15.4831169,12.2794521 15.5571429,12.4238748 15.5805195,12.4802348 C15.6467532,12.6317025 15.8142857,12.6105675 15.9857143,12.4309198 C16.0636364,12.3499022 16.1337662,12.3041096 16.1454545,12.3252446 C16.2155844,12.4238748 15.9311688,12.6704501 15.7363636,12.6845401 C15.6233766,12.6951076 15.5766234,12.6739726 15.4753247,12.5823875 C15.4051948,12.5189824 15.3233766,12.4273973 15.2883117,12.3780822 L15.2220779,12.2900196 L15.1402597,12.4731898 C15.0350649,12.7056751 14.9064935,12.7690802 14.6727273,12.6986301 C14.587013,12.6704501 14.4701299,12.6176125 14.4116883,12.578865 C14.3493506,12.5365949 14.287013,12.5048924 14.2636364,12.5048924 C14.2441558,12.5048924 14.1662338,12.578865 14.0922078,12.6739726 C13.9480519,12.8465753 13.612987,13.1495108 13.3441558,13.339726 C13.2584416,13.3996086 13.1961039,13.4559687 13.2077922,13.4630137 C13.2194805,13.4700587 13.3402597,13.5510763 13.4805195,13.6391389 C13.6207792,13.7272016 13.8077922,13.8681018 13.8974026,13.9455969 C14.0649351,14.0900196 14.0649351,14.0900196 14.1428571,14.0195695 C14.1857143,13.9808219 14.2285714,13.9103718 14.2441558,13.8610568 C14.2558442,13.8117417 14.2948052,13.7729941 14.325974,13.7729941 C14.4155844,13.7729941 14.361039,13.9772994 14.2402597,14.0900196 L14.1428571,14.1816047 L14.2402597,14.3084149 C14.3376623,14.4387476 14.4311688,14.6360078 14.4701299,14.8015656 C14.5012987,14.9283757 14.4077922,15.0129159 14.2675325,14.9847358 C13.9948052,14.9248532 13.9285714,14.8156556 14.1896104,14.8508806 L14.3493506,14.8755382 L14.325974,14.727593 C14.3142857,14.6430528 14.2558442,14.5056751 14.1935065,14.4176125 L14.0844156,14.2555773 L13.7454545,14.2520548 L13.4064935,14.2485323 L13.5428571,14.3753425 C13.7766234,14.5902153 13.6207792,14.5726027 13.3714286,14.3577299 C13.2428571,14.2485323 13.1298701,14.1604697 13.1142857,14.1604697 C13.0987013,14.1604697 12.9311688,14.0970646 12.7441558,14.0195695 L12.4051948,13.8751468 L12.1675325,13.9737769 L11.925974,14.072407 L12.3818182,14.3823875 C12.6311688,14.5514677 12.9155844,14.7522505 13.012987,14.8297456 L13.1883117,14.9706458 L12.9662338,14.8825832 C12.6272727,14.7522505 12.0662338,14.4915851 11.7896104,14.3401174 L11.5441558,14.2027397 L11.5168831,14.4176125 C11.5051948,14.5373777 11.4818182,14.6747554 11.4701299,14.7240705 C11.4506494,14.8050881 11.6025974,14.9389432 13.0090909,16.0767123 C13.8701299,16.7706458 14.5714286,17.3448141 14.5714286,17.3518591 C14.5714286,17.3589041 14.0688312,17.0313112 13.4532468,16.6262231 C12.8376623,16.221135 12.3311688,15.8935421 12.3272727,15.8970646 C12.3233766,15.9005871 12.3584416,16.0133072 12.4090909,16.1471624 C12.5220779,16.4536204 12.5727273,16.7917808 12.5103896,16.8481409 C12.4441558,16.9080235 12.3896104,16.8164384 12.3896104,16.6367906 C12.3896104,16.4571429 12.225974,15.9886497 12.1051948,15.809002 C12.0311688,15.6998043 11.2675325,15.1502935 11.2441558,15.1890411 C11.2402597,15.1960861 11.2168831,15.2277886 11.1857143,15.2594912 C11.1428571,15.3088063 11.1584416,15.3440313 11.2909091,15.495499 C11.5324675,15.7702544 11.625974,15.9745597 11.6415584,16.2563601 C11.6532468,16.4254403 11.6376623,16.548728 11.5987013,16.6332681 C11.5324675,16.7741683 11.325974,16.9291585 11.1818182,16.9502935 C11.0376623,16.9679061 11.061039,16.8833659 11.2168831,16.8093933 C11.4467532,16.7072407 11.512987,16.5874755 11.512987,16.2986301 C11.5090909,16.0168297 11.4350649,15.8477495 11.1935065,15.5765166 L11.0571429,15.4250489 L10.8350649,15.6117417 C10.6168831,15.7984344 10.6012987,15.830137 10.6480519,15.9921722 C10.6636364,16.0485323 10.6519481,16.0379648 10.6168831,15.9639922 C10.5818182,15.9005871 10.5428571,15.851272 10.5272727,15.858317 C10.5116883,15.865362 10.3675325,15.9252446 10.2077922,15.9956947 C10.0480519,16.0661448 9.87662338,16.1365949 9.82597403,16.1542074 L9.74025974,16.18591 L9.87272727,16.3549902 C10.2,16.7671233 10.4298701,17.302544 10.3831169,17.5279843 C10.3168831,17.8555773 9.93506494,18.0246575 9.40909091,17.9577299 Z M8.2987013,15.9745597 C8.65324675,15.8900196 8.99220779,15.7138943 9.27662338,15.474364 C9.42467532,15.3475538 9.54545455,15.2277886 9.54545455,15.2101761 C9.54545455,15.1714286 9.26103896,15.2031311 8.75844156,15.2911937 C8.45844156,15.3475538 8.32207792,15.3933464 8.07662338,15.5272016 C7.90519481,15.6223092 7.58571429,15.7491194 7.35974026,15.816047 C7.13766234,15.8829746 6.94675325,15.9428571 6.93896104,15.9463796 C6.8961039,15.9710372 6.98181818,15.9956947 7.19220779,16.0273973 C7.48441558,16.0661448 8.02207792,16.0414873 8.2987013,15.9745597 Z M9.33982643,15.9717221 C9.35271507,15.9467221 9.34841885,15.9217221 9.32264158,15.9217221 C9.30116052,15.9217221 9.26679083,15.9467221 9.25390219,15.9717221 C9.24101356,16.0017221 9.24530977,16.0217221 9.27108704,16.0217221 C9.2925681,16.0217221 9.3269378,16.0017221 9.33982643,15.9717221 Z M9.81038961,15.8266145 C9.95454545,15.7772994 10.1415584,15.6962818 10.2233766,15.6469667 L10.3792208,15.5589041 L10.1961039,15.4039139 L10.012987,15.2489237 L9.83376623,15.460274 C9.73636364,15.5765166 9.6038961,15.7068493 9.54155844,15.7491194 C9.44805195,15.809002 9.43636364,15.8336595 9.47142857,15.872407 C9.52987013,15.9358121 9.50649351,15.9393346 9.81038961,15.8266145 Z M6.55714286,15.5131115 L6.73636364,15.488454 L6.41688312,15.3440313 L6.0974026,15.1996086 L6.07402597,15.2876712 C6.01168831,15.5060665 6.02727273,15.5342466 6.21038961,15.5342466 C6.3038961,15.5342466 6.45974026,15.5236791 6.55714286,15.5131115 Z M10.6987013,15.3158513 C10.8662338,15.1573386 10.987013,15.0093933 10.987013,14.9636008 C10.987013,14.9495108 10.9246753,14.8966732 10.8545455,14.8473581 L10.7181818,14.7522505 L10.4337662,14.9037182 C10.0207792,15.118591 10.0207792,15.1221135 10.238961,15.3405088 C10.4454545,15.5518591 10.4493506,15.5518591 10.6987013,15.3158513 Z M5.64935065,15.4215264 C5.64935065,15.3968689 5.66103896,15.3193738 5.67272727,15.2524462 L5.6961039,15.1291585 L5.3961039,15.1221135 C5.06493506,15.118591 5.06493506,15.1150685 5.38051948,15.3264188 C5.60649351,15.474364 5.64935065,15.488454 5.64935065,15.4215264 Z M7.51168831,15.2383562 C7.61298701,15.1925636 7.73766234,15.125636 7.78831169,15.0868885 L7.87792208,15.0199609 L7.67142857,14.9776908 C7.55454545,14.9530333 7.32467532,14.8755382 7.16103896,14.8050881 L6.85714286,14.6782779 L6.71298701,14.769863 C6.63116883,14.8191781 6.49480519,14.8896282 6.41298701,14.9283757 L6.26103896,14.9953033 L6.43246753,15.0868885 C6.63896104,15.1960861 6.78701299,15.2489237 6.99350649,15.2876712 C7.25064935,15.3334638 7.31688312,15.3264188 7.51168831,15.2383562 Z M8.97272727,15.1502935 C9.02337662,15.132681 9.0038961,15.118591 8.88701299,15.090411 C8.74285714,15.0551859 8.72337662,15.0587084 8.64155844,15.139726 L8.55194805,15.2242661 L8.72727273,15.1996086 C8.82467532,15.1855186 8.93376623,15.1608611 8.97272727,15.1502935 Z M9.77922078,14.8799933 C9.77922078,14.8141705 9.73636364,14.8141705 9.66233766,14.8799933 C9.61558442,14.9204996 9.61948052,14.9306262 9.69350649,14.9306262 C9.74025974,14.9306262 9.77922078,14.9103731 9.77922078,14.8799933 Z M5.49350649,14.7663405 C5.49350649,14.7522505 5.43506494,14.6888454 5.36883117,14.6289628 L5.24025974,14.5197652 L5.06493506,14.5902153 C4.89350649,14.6606654 4.89350649,14.6606654 4.98701299,14.6958904 C5.08051948,14.727593 5.34155844,14.783953 5.44675325,14.790998 C5.47012987,14.7945205 5.49350649,14.7804305 5.49350649,14.7663405 Z M8.22077922,14.7240705 C8.27142857,14.6395303 8.27532468,14.6430528 7.90909091,14.5831703 C7.76883117,14.5620352 7.54675325,14.5021526 7.41038961,14.4528376 C7.21558442,14.3823875 7.15324675,14.3753425 7.11038961,14.407045 C7.02077922,14.4739726 7.03636364,14.4915851 7.27792208,14.5972603 C7.72987013,14.790998 8.14675325,14.8473581 8.22077922,14.7240705 Z M9.31168831,14.7266079 C9.38181818,14.6997359 9.34675325,14.6952573 9.1987013,14.6997359 C9.07012987,14.7042146 8.98051948,14.7310866 8.96883117,14.7624373 C8.95324675,14.82066 9.08961039,14.807224 9.31168831,14.7266079 Z M6.33896104,14.5655577 C6.42857143,14.5162427 6.50649351,14.4634051 6.5025974,14.4493151 C6.4987013,14.435225 6.40519481,14.3471624 6.28831169,14.2520548 L6.07792208,14.0794521 L6.07792208,14.2027397 C6.07792208,14.3682975 6.12077922,14.6536204 6.14805195,14.6536204 C6.15974026,14.6536204 6.24545455,14.6148728 6.33896104,14.5655577 Z M5.7,14.435225 C5.68831169,14.3506849 5.67272727,14.2802348 5.66883117,14.2731898 C5.66493506,14.2696673 5.62207792,14.2943249 5.57532468,14.3260274 L5.48961039,14.3894325 L5.57142857,14.4880626 C5.68831169,14.6219178 5.72337662,14.6078278 5.7,14.435225 Z M9.52987013,14.407045 L9.66233766,14.407045 L9.66233766,14.1956947 L9.66233766,13.9843444 L9.5025974,13.9138943 C9.41298701,13.8716243 9.33896104,13.8434442 9.33116883,13.8504892 C9.32337662,13.8575342 9.29220779,13.9561644 9.25714286,14.072407 C9.22597403,14.1886497 9.18311688,14.3225049 9.17142857,14.3682975 C9.14415584,14.4493151 9.15194805,14.4528376 9.27272727,14.4317025 C9.34285714,14.4176125 9.45974026,14.407045 9.52987013,14.407045 Z M8.58311688,14.2097847 C8.64545455,14.1005871 8.68831169,14.009002 8.68051948,14.0019569 C8.64545455,13.9772994 7.42597403,13.9138943 7.4025974,13.9385519 C7.39090909,13.9526419 7.35974026,14.009002 7.33246753,14.0618395 C7.28961039,14.1569472 7.29350649,14.1639922 7.42987013,14.2133072 C7.67532468,14.3048924 8.0961039,14.392955 8.33766234,14.4035225 C8.47012987,14.407045 8.48181818,14.3964775 8.58311688,14.2097847 Z M4.28181818,13.8434442 C4.28571429,13.9103718 4.31298701,14.016047 4.34025974,14.072407 C4.38701299,14.1710372 4.39090909,14.1604697 4.41428571,13.8610568 C4.42597403,13.688454 4.44545455,13.5123288 4.46103896,13.4700587 C4.48051948,13.4101761 4.46103896,13.3925636 4.31688312,13.353816 C4.22337662,13.3291585 4.08311688,13.2763209 4.00519481,13.2410959 C3.84155844,13.1671233 3.84545455,13.1600783 3.85714286,13.4207436 C3.86103896,13.6391389 3.95844156,13.9350294 4.08311688,14.1252446 L4.18831169,14.2837573 L4.23116883,14.0019569 C4.25844156,13.8293542 4.27792208,13.7694716 4.28181818,13.8434442 Z M4.84285714,14.1921722 L4.99480519,14.1569472 L4.95974026,14.009002 C4.94415584,13.9279843 4.93246753,13.7800391 4.93636364,13.6778865 C4.94025974,13.5123288 4.93246753,13.4947162 4.84675325,13.4771037 C4.71818182,13.4454012 4.68701299,13.4700587 4.63636364,13.6250489 C4.59350649,13.7729941 4.58571429,13.9596869 4.62077922,14.1217221 C4.64805195,14.2450098 4.64415584,14.2450098 4.84285714,14.1921722 Z M3.66233766,14.1886497 C3.66233766,14.1816047 3.62727273,14.0970646 3.58441558,13.9949119 C3.49480519,13.7765166 3.42857143,13.346771 3.45584416,13.1248532 C3.47142857,12.9980431 3.46363636,12.9452055 3.40909091,12.8923679 C3.37012987,12.8536204 3.32337662,12.8219178 3.30779221,12.8219178 C3.28831169,12.8219178 3.24545455,12.9099804 3.21038961,13.0191781 C3.13246753,13.2692759 3.14805195,13.667319 3.24935065,13.8540117 C3.33896104,14.023092 3.51818182,14.1956947 3.6,14.1956947 C3.63506494,14.1956947 3.66233766,14.1921722 3.66233766,14.1886497 Z M13.9246753,14.1287671 C13.9636364,14.072407 13.1844156,13.5228963 13.0714286,13.5264188 C13.0519481,13.5264188 13.0012987,13.5510763 12.9584416,13.5792564 C12.8805195,13.6320939 12.8805195,13.6250489 13.1727273,14.030137 C13.238961,14.1181996 13.8779221,14.1992172 13.9246753,14.1287671 Z M5.54025974,13.9632094 C5.63376623,13.9209393 5.64545455,13.8962818 5.62597403,13.7976517 C5.57532468,13.5158513 5.58311688,13.5264188 5.4,13.5264188 C5.17792208,13.5264188 5.11558442,13.6215264 5.32597403,13.6391389 C5.41948052,13.646184 5.48571429,13.6778865 5.52467532,13.7307241 C5.58311688,13.8117417 5.57922078,13.8117417 5.48181818,13.7906067 C5.42337662,13.7765166 5.33376623,13.7765166 5.27922078,13.7870841 C5.19350649,13.8082192 5.18571429,13.8223092 5.20519481,13.9068493 C5.22077922,13.9596869 5.24025974,14.016047 5.24805195,14.030137 C5.26753247,14.0618395 5.38441558,14.0336595 5.54025974,13.9632094 Z M12.9038961,13.8293542 C12.8025974,13.6778865 12.7948052,13.6778865 12.6935065,13.7236791 C12.6311688,13.7518591 12.5844156,13.7870841 12.5844156,13.8046967 C12.5844156,13.8293542 12.9077922,13.9737769 12.9818182,13.9808219 C12.9974026,13.9843444 12.9623377,13.9138943 12.9038961,13.8293542 Z M6.98961039,13.8927593 C7.02077922,13.8223092 7.02467532,13.8223092 6.86103896,13.7941292 L6.72467532,13.7729941 L6.81818182,13.8610568 C6.92727273,13.9632094 6.95844156,13.9702544 6.98961039,13.8927593 Z M8.75454545,13.8258317 C8.76623377,13.7941292 8.76623377,13.7624266 8.75844156,13.7518591 C8.74675325,13.7448141 8.55974026,13.7553816 8.34155844,13.7800391 C7.87402597,13.8293542 7.8974026,13.8786693 8.38831169,13.8786693 C8.66103896,13.8786693 8.73506494,13.8681018 8.75454545,13.8258317 Z M12.074026,13.6109589 C12.5649351,13.3996086 13.0363636,13.1283757 13.3558442,12.8747554 L13.5623377,12.7091977 L13.4376623,12.6493151 L13.312987,12.592955 L13.012987,12.8571429 C12.6857143,13.1459883 12.2064935,13.4242661 11.7194805,13.6039139 C11.4896104,13.688454 11.4155844,13.7342466 11.4155844,13.7835616 C11.4155844,13.8786693 11.5285714,13.8469667 12.074026,13.6109589 Z M2.7974026,13.5088063 C2.84025974,13.4630137 2.88311688,13.3362035 2.8987013,13.2305284 C2.91038961,13.1213307 2.96493506,12.927593 3.01558442,12.8007828 C3.08571429,12.62818 3.1012987,12.5436399 3.07402597,12.4978474 C3.02727273,12.4203523 3.05454545,12.4238748 2.77792208,12.4872798 C2.65714286,12.5154599 2.46233766,12.5401174 2.34935065,12.5401174 C2.16233766,12.5401174 2.14285714,12.5471624 2.14285714,12.621135 C2.14675325,12.8148728 2.57922078,13.5968689 2.68441558,13.5968689 C2.7038961,13.5968689 2.75454545,13.5581213 2.7974026,13.5088063 Z M6.08961039,13.5334638 C6.15194805,13.4735812 6.14805195,13.4630137 6.04675325,13.3749511 L5.93376623,13.2798434 L5.94935065,13.3925636 C5.96883117,13.5228963 5.99220779,13.5968689 6.01168831,13.5968689 C6.01948052,13.5968689 6.05454545,13.5686888 6.08961039,13.5334638 Z M12.1285714,13.0297456 C12.4363636,12.8641879 12.8142857,12.58591 12.9311688,12.4414873 L13.012987,12.3358121 L12.9,12.1174168 L12.7909091,11.895499 L12.6935065,12.0857143 C12.5532468,12.3639922 12.2649351,12.6880626 11.9922078,12.8818004 C11.3766234,13.318591 11.4428571,13.3960861 12.1285714,13.0297456 Z M4.72987013,13.0227006 C4.5974026,12.9592955 4.41038961,12.8465753 4.31298701,12.7726027 C4.13376623,12.6422701 4.12597403,12.6387476 4.03246753,12.6951076 C3.97792208,12.7268102 3.93506494,12.7655577 3.93506494,12.7831703 C3.93506494,12.8465753 4.72987013,13.1283757 4.92857143,13.1354207 C4.95194805,13.1354207 4.86233766,13.0861057 4.72987013,13.0227006 Z M9.46753247,13.0156556 C9.6,12.9522505 9.81818182,12.635225 9.81818182,12.5048924 C9.81818182,12.4273973 9.8025974,12.4379648 9.63116883,12.6 C9.51428571,12.7162427 9.36233766,12.8183953 9.21818182,12.8782779 C8.99220779,12.969863 8.99220779,12.9733855 9.08181818,13.0191781 C9.20649351,13.0825832 9.33116883,13.0790607 9.46753247,13.0156556 Z M10.5818182,12.8043053 C10.6792208,12.7444227 10.7181818,12.6035225 10.6831169,12.4414873 L10.6558442,12.3217221 L10.4571429,12.5471624 C10.3519481,12.6704501 10.2467532,12.7902153 10.2311688,12.8148728 C10.1883117,12.8782779 10.4805195,12.8712329 10.5818182,12.8043053 Z M4.88961039,12.5542074 C4.92467532,12.237182 4.89350649,12.2054795 4.57792208,12.2794521 C4.21168831,12.3639922 4.21948052,12.3534247 4.34805195,12.4767123 C4.49220779,12.61409 4.74935065,12.7866928 4.81168831,12.7866928 C4.84285714,12.7866928 4.87012987,12.7021526 4.88961039,12.5542074 Z M14.9337662,12.5119374 C14.9688312,12.4767123 15.0155844,12.3710372 15.038961,12.2759295 C15.0818182,12.1033268 15.0779221,12.0927593 14.8909091,11.7686888 C14.7857143,11.5890411 14.6883117,11.4516634 14.6805195,11.4692759 C14.6688312,11.4868885 14.6493506,11.5714286 14.6337662,11.6594912 C14.6181818,11.7475538 14.5480519,11.9412916 14.4779221,12.0892368 C14.3337662,12.3886497 14.3337662,12.3992172 14.5909091,12.5189824 C14.7428571,12.592955 14.8558442,12.5894325 14.9337662,12.5119374 Z M12.3194805,11.9518591 C12.4675325,11.6841487 12.4792208,11.6348337 12.4948052,11.3178082 C12.5064935,11.127593 12.4987013,10.9091977 12.4792208,10.8317025 C12.4441558,10.6908023 12.4441558,10.6908023 12.2649351,10.6978474 C12.1675325,10.6978474 12.0428571,10.7260274 11.9922078,10.7577299 C11.8948052,10.81409 11.8948052,10.8176125 11.8675325,11.5643836 C11.8519481,11.9729941 11.8324675,12.3675147 11.8207792,12.4344423 L11.7974026,12.5577299 L11.9766234,12.3992172 C12.0896104,12.3005871 12.2220779,12.1315068 12.3194805,11.9518591 Z M13.8623377,12.3639922 C13.9090909,12.3076321 13.9480519,12.2477495 13.9480519,12.2336595 C13.9441558,12.2019569 13.687013,11.9412916 13.6558442,11.9412916 C13.6441558,11.9412916 13.6363636,11.9624266 13.6363636,11.9870841 C13.6363636,12.0082192 13.5935065,12.1138943 13.538961,12.2125245 C13.4532468,12.3851272 13.4493506,12.3992172 13.5116883,12.4344423 C13.6402597,12.5013699 13.7727273,12.4731898 13.8623377,12.3639922 Z M2.65714286,12.3252446 C2.84805195,12.2900196 3,12.223092 2.89480519,12.223092 C2.81688312,12.223092 2.31038961,11.8356164 2.16623377,11.6665362 L2.02597403,11.5080235 L2.02597403,11.8039139 C2.02597403,11.9659491 2.03766234,12.1596869 2.04935065,12.2336595 C2.07662338,12.3639922 2.07662338,12.3639922 2.26363636,12.3639922 C2.36493506,12.3639922 2.54415584,12.3463796 2.65714286,12.3252446 Z M15.3155844,12.1808219 C15.2727273,12.1174168 15.2337662,12.0786693 15.2337662,12.0927593 C15.2337662,12.1385519 15.3623377,12.3287671 15.3818182,12.3111546 C15.3935065,12.3041096 15.3623377,12.244227 15.3155844,12.1808219 Z M11.2441558,12.2054795 C11.3532468,12.0540117 11.3688312,11.3354207 11.2597403,11.3953033 C11.2441558,11.4058708 11.1896104,11.5291585 11.1428571,11.6665362 C11.0961039,11.8074364 11.025974,11.9729941 10.9831169,12.0328767 C10.912987,12.1385519 10.912987,12.1385519 10.9987013,12.216047 C11.1077922,12.3181996 11.1662338,12.3146771 11.2441558,12.2054795 Z M13.3207792,11.6489237 C13.3246753,11.5221135 12.9233766,10.9796477 12.9038961,11.0853229 C12.8883117,11.1874755 13.0285714,11.7933464 13.1103896,11.9589041 L13.1766234,12.0998043 L13.2467532,11.9236791 C13.2857143,11.8285714 13.3207792,11.7017613 13.3207792,11.6489237 Z M14.1350649,11.9166341 C14.2324675,11.7052838 14.3103896,11.3636008 14.2909091,11.2015656 C14.2792208,11.0888454 14.2597403,11.0677104 13.9909091,10.9444227 C13.8311688,10.8739726 13.6948052,10.8176125 13.687013,10.8246575 C13.6792208,10.8317025 13.6909091,10.9549902 13.7142857,11.0994129 C13.7376623,11.2438356 13.7454545,11.4516634 13.7337662,11.5608611 C13.7064935,11.7545988 13.7103896,11.7651663 13.8545455,11.9201566 C13.9363636,12.0117417 14.0142857,12.0821918 14.0298701,12.0821918 C14.0454545,12.0821918 14.0922078,12.0082192 14.1350649,11.9166341 Z M15.1168831,11.881409 C15.1168831,11.8637965 15.0779221,11.8144814 15.0350649,11.7651663 L14.9571429,11.6771037 L15.0194805,11.7933464 C15.0779221,11.8990215 15.1168831,11.9377691 15.1168831,11.881409 Z M3.24155844,11.7405088 C3.24935065,11.7017613 3.18701299,11.6066536 3.09350649,11.5080235 C2.85584416,11.2649706 2.78571429,11.0571429 2.78571429,10.5851272 L2.78571429,10.1941292 L2.6025974,10.2293542 C2.41558442,10.2645793 2.41558442,10.2645793 2.41558442,10.4054795 C2.41948052,10.8 2.64155844,11.2861057 2.97272727,11.6136986 C3.17922078,11.8144814 3.21818182,11.8356164 3.24155844,11.7405088 Z M10.7376623,11.3988258 C10.8077922,11.3001957 10.8623377,11.2156556 10.8545455,11.2086106 C10.8467532,11.2015656 10.7766234,11.2191781 10.7025974,11.2508806 C10.5428571,11.3107632 10.4805195,11.3953033 10.4805195,11.5573386 C10.4805195,11.6559687 10.4883117,11.6630137 10.5428571,11.6207436 C10.5779221,11.5960861 10.6675325,11.4939335 10.7376623,11.3988258 Z M15.1051948,11.3882583 C15.0545455,10.807045 14.9298701,10.5463796 14.6103896,10.3526419 C14.3805195,10.2117417 14.3064935,10.2187867 14.4311688,10.3667319 C14.5753247,10.5393346 14.6532468,10.7365949 14.6766234,11.0007828 C14.7,11.2262231 14.7116883,11.2544031 14.8948052,11.4516634 C15.0038961,11.5643836 15.0974026,11.6594912 15.1090909,11.6594912 C15.1207792,11.6594912 15.1168831,11.5362035 15.1051948,11.3882583 Z M3.56883117,11.0641879 C3.45194805,10.9479452 3.31168831,10.6133072 3.26883117,10.3455969 C3.22987013,10.102544 3.21818182,10.0778865 3.15584416,10.109589 C3.06623377,10.1518591 3.01948052,10.4407045 3.04675325,10.7823875 C3.07402597,11.0888454 3.1987013,11.3178082 3.43246753,11.4798434 L3.6038961,11.5996086 L3.61558442,11.3600783 C3.62337662,11.1874755 3.61168831,11.1064579 3.56883117,11.0641879 Z M11.7506494,10.9268102 C11.7233766,10.9056751 11.4935065,10.9902153 11.4935065,11.0254403 C11.4935065,11.0395303 11.5168831,11.0712329 11.5441558,11.0923679 C11.5753247,11.1135029 11.6298701,11.1980431 11.6727273,11.2790607 L11.7467532,11.4305284 L11.7584416,11.1874755 C11.7662338,11.0536204 11.7623377,10.9373777 11.7506494,10.9268102 Z M4.12597403,11.141683 C3.91168831,10.9373777 3.81818182,10.7964775 3.65454545,10.4477495 C3.50649351,10.1201566 3.45974026,10.1377691 3.56103896,10.4794521 C3.65844156,10.8105675 3.82987013,11.0324853 4.12987013,11.2121331 C4.27792208,11.3037182 4.27402597,11.2825832 4.12597403,11.141683 Z M13.2662338,10.9021526 C13.2077922,10.7084149 13.2038961,10.7084149 13.0519481,10.7084149 C12.9662338,10.7084149 12.8961039,10.7189824 12.8961039,10.7295499 C12.8961039,10.7401174 12.9896104,10.8704501 13.1025974,11.0183953 C13.2857143,11.2614481 13.3051948,11.2790607 13.3168831,11.190998 C13.3246753,11.1381605 13.3012987,11.0078278 13.2662338,10.9021526 Z M0.463636364,11.0923679 C0.490909091,11.0113503 0.502597403,10.9409002 0.490909091,10.9303327 C0.479220779,10.9197652 0.416883117,10.9303327 0.350649351,10.9549902 C0.218181818,11.0043053 0.148051948,11.155773 0.237662338,11.2050881 C0.350649351,11.2684932 0.416883117,11.2367906 0.463636364,11.0923679 Z M0.962337662,11.1170254 C1.17272727,11.0254403 1.24675325,10.9444227 1.24675325,10.8 C1.24675325,10.5780822 0.896103896,10.7119374 0.736363636,10.9972603 C0.603896104,11.2297456 0.642857143,11.2508806 0.962337662,11.1170254 Z M10.8779221,10.9549902 C10.9558442,10.9549902 10.9597403,10.9514677 10.9246753,10.8704501 C10.8896104,10.7894325 10.7688312,10.8 10.6987013,10.8915851 C10.6012987,11.0148728 10.6168831,11.0782779 10.7220779,11.0113503 C10.7688312,10.9796477 10.838961,10.9549902 10.8779221,10.9549902 Z M14.2363636,10.8 C14.1428571,10.5569472 13.9090909,10.3420744 13.574026,10.1941292 C13.4142857,10.1201566 13.2779221,10.0708415 13.2701299,10.0778865 C13.2584416,10.0849315 13.312987,10.1800391 13.387013,10.2857143 C13.461039,10.3913894 13.5428571,10.5287671 13.5662338,10.5921722 C13.5935065,10.6555773 13.6324675,10.7084149 13.6558442,10.7084149 C13.6792208,10.7084149 13.8194805,10.7612524 13.9675325,10.82818 C14.1194805,10.8951076 14.2519481,10.9514677 14.2675325,10.9514677 C14.2831169,10.9549902 14.2675325,10.8845401 14.2363636,10.8 Z M11.6181818,10.6872798 L11.7350649,10.6309198 L11.7116883,10.3984344 C11.661039,9.96868885 11.6493506,9.92994129 11.5558442,9.94050881 C11.4779221,9.95107632 11.474026,9.96868885 11.474026,10.3455969 C11.474026,10.5639922 11.4779221,10.7436399 11.4857143,10.7436399 C11.4935065,10.7436399 11.5519481,10.7189824 11.6181818,10.6872798 Z M1.87271863,10.5980258 C1.83525395,10.5657198 1.79778926,10.5778345 1.79778926,10.6222554 C1.78530103,10.6666762 1.82276572,10.6909057 1.86023041,10.6747527 C1.89769509,10.6626379 1.91018332,10.6262936 1.87271863,10.5980258 Z M12.3896104,10.5604697 C12.3857143,10.4547945 12.3311688,10.437182 12.261039,10.5181996 C12.1909091,10.6027397 12.1909091,10.6027397 12.2922078,10.6027397 C12.3467532,10.6027397 12.3896104,10.5816047 12.3896104,10.5604697 Z M13.0714286,10.5005871 C12.9857143,10.3491194 12.9506494,10.3455969 12.9038961,10.4794521 L12.8649351,10.6027397 L12.9974026,10.6027397 L13.1337662,10.6027397 L13.0714286,10.5005871 Z M12.0935065,10.3279843 L12.1987013,10.1870841 L12.1090909,10.060274 C12.0428571,9.96516634 11.9922078,9.9334638 11.9142857,9.9334638 C11.8168831,9.9334638 11.8051948,9.94755382 11.8051948,10.0497065 C11.8051948,10.109589 11.8168831,10.2434442 11.8285714,10.3455969 C11.8519481,10.5041096 11.8636364,10.5252446 11.9220779,10.4970646 C11.9571429,10.4794521 12.0350649,10.4019569 12.0935065,10.3279843 Z M4.44155844,10.4407045 C4.44155844,10.430137 4.40649351,10.3808219 4.36363636,10.3315068 L4.28571429,10.2399217 L4.28571429,10.3279843 C4.28571429,10.3772994 4.2974026,10.4266145 4.31298701,10.437182 C4.34415584,10.4688845 4.44155844,10.4688845 4.44155844,10.4407045 Z M1.90909091,10.3385519 C1.90909091,10.3068493 1.87402597,10.2857143 1.82727273,10.2857143 C1.75714286,10.2857143 1.75324675,10.2927593 1.79220779,10.3385519 C1.81948052,10.3667319 1.85454545,10.3913894 1.87402597,10.3913894 C1.89350649,10.3913894 1.90909091,10.3667319 1.90909091,10.3385519 Z M12.7792208,10.2117417 C12.7792208,10.1483366 12.674026,10.053229 12.638961,10.0849315 C12.6272727,10.095499 12.638961,10.1624266 12.6662338,10.2293542 C12.7168831,10.3526419 12.7753247,10.3420744 12.7792208,10.2117417 Z M14.4350649,9.9334638 C14.212987,9.72915851 14.0181818,9.63405088 13.7064935,9.5776908 C13.4532468,9.53189824 13.0519481,9.56360078 13.0519481,9.63052838 C13.0519481,9.65166341 13.1688312,9.70097847 13.312987,9.73620352 C13.4532468,9.76790607 13.6714286,9.84540117 13.7961039,9.90176125 C13.9207792,9.95812133 14.0727273,10.0039139 14.1311688,10.0074364 C14.1896104,10.0074364 14.3103896,10.0285714 14.3961039,10.0567515 C14.6376623,10.1272016 14.6415584,10.1201566 14.4350649,9.9334638 Z M1.99090909,9.96868885 C2.02987013,9.94755382 2.06493506,9.91232877 2.06493506,9.88767123 C2.06493506,9.8630137 2.12337662,9.71506849 2.19350649,9.55655577 L2.32597403,9.26771037 L2.22857143,9.15851272 C2.17402597,9.09510763 2.09220779,8.95772994 2.04155844,8.84853229 L1.95584416,8.65479452 L1.91298701,8.79217221 C1.88961039,8.86614481 1.83116883,9.10215264 1.78441558,9.30998043 C1.71818182,9.61643836 1.71038961,9.70802348 1.74545455,9.76086106 C1.77272727,9.79608611 1.79220779,9.85596869 1.79220779,9.89119374 C1.79220779,10.0074364 1.85844156,10.0320939 1.99090909,9.96868885 Z M2.68051948,9.85949119 C3.03116883,9.78199609 3.05844156,9.66927593 2.76623377,9.53894325 L2.57142857,9.45088063 L2.51688312,9.59530333 C2.38441558,9.9334638 2.37662338,9.92641879 2.68051948,9.85949119 Z M1.23604274,9.56007828 C1.20446925,9.43679061 1.17921045,9.39804305 1.17289575,9.46144814 C1.16658105,9.58121331 1.22972805,9.80313112 1.26761624,9.78199609 C1.28024564,9.77495108 1.26761624,9.67632094 1.23604274,9.56007828 Z M1.68701299,8.84148728 C1.76883117,8.5667319 1.76883117,8.53150685 1.71428571,8.44344423 C1.68311688,8.39060665 1.64415584,8.34833659 1.62857143,8.34833659 C1.61688312,8.34833659 1.57402597,8.4223092 1.53896104,8.51741683 C1.45714286,8.72172211 1.42207792,9.18669276 1.46103896,9.46144814 L1.49220779,9.66927593 L1.54675325,9.40508806 C1.57402597,9.26066536 1.63636364,9.00704501 1.68701299,8.84148728 Z M11.1974026,9.48962818 C11.287013,9.41213307 11.2753247,9.27827789 11.174026,9.2148728 C11.1272727,9.18317025 11.0766234,9.15851272 11.0649351,9.15851272 C11.0532468,9.15851272 11.061039,9.24657534 11.0805195,9.35225049 C11.1038961,9.45792564 11.1233766,9.54598826 11.1272727,9.54598826 C11.1350649,9.54598826 11.1662338,9.52133072 11.1974026,9.48962818 Z M12.7012987,9.44383562 C12.7363636,9.362818 12.7363636,9.32407045 12.7012987,9.25714286 C12.638961,9.15499022 12.4714286,8.98590998 12.3779221,8.94363992 C12.3116883,8.90841487 12.3116883,8.91545988 12.3818182,9.04227006 C12.4246753,9.11624266 12.4792208,9.23953033 12.5025974,9.31702544 C12.5298701,9.39452055 12.5571429,9.47906067 12.5649351,9.5037182 C12.5922078,9.5776908 12.6506494,9.54951076 12.7012987,9.44383562 Z M13.5506494,9.44031311 C13.5155844,9.41917808 13.4064935,9.39452055 13.3090909,9.38395303 C13.161039,9.362818 13.1298701,9.36986301 13.1298701,9.41917808 C13.1298701,9.46497065 13.1727273,9.47553816 13.3753247,9.47553816 C13.5506494,9.47201566 13.5974026,9.46497065 13.5506494,9.44031311 Z M0.98961039,8.8590998 L1.00909091,8.71819961 L0.954545455,8.84148728 C0.927272727,8.90841487 0.903896104,9.05988258 0.903896104,9.17612524 L0.903896104,9.38747554 L0.935064935,9.19373777 C0.954545455,9.08806262 0.977922078,8.93659491 0.98961039,8.8590998 Z M12.1753247,9.19021526 C12.1246753,9.10567515 12.1012987,9.08806262 12.074026,9.12681018 C12.0194805,9.20782779 12.0350649,9.25009785 12.1285714,9.2888454 C12.2454545,9.33816047 12.2493506,9.32407045 12.1753247,9.19021526 Z M11.7272727,8.91193738 C11.7896104,8.67945205 11.7623377,8.62309198 11.6025974,8.637182 C11.4818182,8.64774951 11.474026,8.65479452 11.4623377,8.80273973 C11.4506494,8.93307241 11.4662338,8.97181996 11.5402597,9.02465753 C11.5909091,9.05988258 11.6415584,9.08806262 11.6571429,9.08806262 C11.6688312,9.08806262 11.7,9.00704501 11.7272727,8.91193738 Z M12.7987013,8.74990215 L12.7753247,8.63013699 L12.487013,8.63013699 C12.3194805,8.63013699 12.1948052,8.64422701 12.1948052,8.66536204 C12.1948052,8.68649706 12.2220779,8.70058708 12.2532468,8.70058708 C12.3506494,8.70058708 12.5961039,8.82739726 12.7012987,8.9295499 C12.7987013,9.02465753 12.7987013,9.02465753 12.8103896,8.94716243 C12.8181818,8.90136986 12.8142857,8.81330724 12.7987013,8.74990215 Z M2.57922078,8.83796477 L2.65714286,8.7146771 L2.53636364,8.54911937 C2.46623377,8.46105675 2.38051948,8.27084149 2.34155844,8.12994129 L2.26753247,7.87279843 L2.23636364,8.01369863 C2.16233766,8.32015656 2.22077922,8.70058708 2.36883117,8.90489237 C2.44285714,9.00704501 2.47792208,8.99295499 2.57922078,8.83796477 Z M4.57012987,8.61956947 C4.62077922,8.39060665 4.62077922,8.38708415 4.55064935,8.44344423 C4.4961039,8.48571429 4.48051948,8.54911937 4.48441558,8.7146771 C4.48831169,8.96125245 4.4961039,8.95068493 4.57012987,8.61956947 Z M3.97402597,8.59843444 L4.22727273,8.53502935 L4.05974026,8.48923679 C3.86103896,8.43287671 3.7012987,8.48219178 3.7012987,8.59491194 C3.7012987,8.63365949 3.70519481,8.66536204 3.71298701,8.66536204 C3.71688312,8.66183953 3.83376623,8.63365949 3.97402597,8.59843444 Z M3.14805195,8.20039139 L3.5025974,7.87984344 L3.3974026,7.80587084 C3.33896104,7.76712329 3.21428571,7.65792564 3.11688312,7.56634051 L2.94155844,7.39726027 L2.77402597,7.53816047 C2.52077922,7.76007828 2.49350649,7.80939335 2.53246753,8.02074364 C2.56753247,8.21800391 2.72337662,8.52446184 2.78571429,8.52446184 C2.79350649,8.52446184 2.95714286,8.38003914 3.14805195,8.20039139 Z M11.7662338,8.32367906 C11.7662338,8.16868885 11.7194805,8.12994129 11.5987013,8.16868885 C11.5168831,8.19686888 11.4935065,8.22857143 11.4935065,8.31311155 C11.4935065,8.41174168 11.5051948,8.41878669 11.6298701,8.41878669 C11.7545455,8.41878669 11.7662338,8.40821918 11.7662338,8.32367906 Z M12.6038961,8.21800391 C12.4402597,7.93620352 12.4246753,7.9221135 12.2571429,7.96790607 C12.1168831,8.00665362 12.1090909,8.01369863 12.1324675,8.1334638 C12.1441558,8.20391389 12.1558442,8.28845401 12.1558442,8.32367906 C12.1558442,8.37299413 12.1948052,8.38356164 12.4285714,8.38356164 L12.7012987,8.38356164 L12.6038961,8.21800391 Z M5.01818182,8.27084149 C4.98311688,8.18277886 4.88181818,8.15812133 4.74935065,8.2109589 L4.61688312,8.26027397 L4.77272727,8.281409 C5.02207792,8.31663405 5.03376623,8.31663405 5.01818182,8.27084149 Z M2.01038961,7.97847358 C2.07662338,7.8446184 2.04155844,7.81291585 1.94805195,7.92563601 C1.90519481,7.97495108 1.87402597,8.0665362 1.87402597,8.1369863 C1.87402597,8.25675147 1.87792208,8.25675147 1.91688312,8.17221135 C1.94025974,8.12289628 1.98311688,8.03835616 2.01038961,7.97847358 Z M9.96623377,7.72485323 C9.9,7.66849315 9.67792208,7.60508806 9.64675325,7.63679061 C9.63116883,7.64735812 9.70519481,7.73542074 9.80649351,7.82700587 L9.99350649,7.99960861 L10.0051948,7.88688845 C10.012987,7.82348337 9.99350649,7.75303327 9.96623377,7.72485323 Z M10.3831169,7.66144814 C10.3363636,7.37612524 10.0285714,7.14363992 9.75584416,7.19295499 C9.70519481,7.2 9.74415584,7.24227006 9.90779221,7.35499022 C10.0285714,7.43953033 10.1805195,7.58747554 10.2506494,7.68258317 C10.3168831,7.7776908 10.3831169,7.85166341 10.3909091,7.84109589 C10.4025974,7.83052838 10.3987013,7.74951076 10.3831169,7.66144814 Z M3.53376623,7.47827789 C3.50649351,7.31976517 3.47532468,7.18238748 3.45974026,7.16829746 C3.43246753,7.14363992 3.13636364,7.2704501 3.0974026,7.32681018 C3.07402597,7.36203523 3.53766234,7.80587084 3.56493506,7.7776908 C3.57272727,7.77064579 3.55714286,7.63679061 3.53376623,7.47827789 Z M11.5285714,7.55577299 C11.4896104,7.37964775 11.3025974,7.16125245 11.2675325,7.25283757 C11.2441558,7.31272016 11.5168831,7.7741683 11.5558442,7.74246575 C11.5597403,7.73542074 11.5480519,7.65088063 11.5285714,7.55577299 Z M11.7662338,7.66144814 C11.7974026,7.6297456 11.8480519,7.61565558 11.9064935,7.6297456 C12.0350649,7.65792564 12.0233766,7.62270059 11.8831169,7.55577299 C11.7701299,7.50293542 11.7662338,7.50293542 11.7077922,7.60861057 C11.6454545,7.71780822 11.6805195,7.75303327 11.7662338,7.66144814 Z M10.8779221,7.30919765 C10.8311688,7.21761252 10.7103896,7.13659491 10.5584416,7.09784736 C10.4649351,7.06966732 10.4649351,7.07318982 10.5857143,7.1964775 C10.6519481,7.26340509 10.7181818,7.37260274 10.7337662,7.43953033 C10.7922078,7.69667319 10.8,7.7072407 10.8623377,7.54520548 C10.9051948,7.42896282 10.9090909,7.36908023 10.8779221,7.30919765 Z M4.73766234,7.37964775 L4.87402597,7.32681018 L4.69090909,7.10841487 C4.58961039,6.9851272 4.5,6.87945205 4.49220779,6.87240705 C4.47662338,6.85127202 4.28571429,7.01682975 4.23896104,7.09080235 C4.18051948,7.18943249 4.23506494,7.31976517 4.35584416,7.37612524 C4.49220779,7.44305284 4.56623377,7.44657534 4.73766234,7.37964775 Z M6.86103896,7.11898239 C6.95454545,7.10136986 7.08701299,7.07318982 7.14935065,7.0590998 L7.26623377,7.03796477 L7.12987013,6.99217221 C6.84545455,6.89354207 6.55324675,6.95342466 6.3974026,7.13307241 C6.24935065,7.30215264 6.28831169,7.33737769 6.5025974,7.24227006 C6.60779221,7.19295499 6.76753247,7.13659491 6.86103896,7.11898239 Z M14.8051948,7.2035225 C14.7,7.10136986 14.6220779,7.09432485 14.5012987,7.17181996 C14.361039,7.25988258 14.4,7.29158513 14.6571429,7.29158513 L14.8948052,7.29158513 L14.8051948,7.2035225 Z M3.98571429,6.97103718 L4.12987013,6.79843444 L4.02077922,6.79843444 C3.96233766,6.79843444 3.87272727,6.82309198 3.82597403,6.85479452 C3.75584416,6.89706458 3.74025974,6.93933464 3.74415584,7.09080235 C3.74415584,7.24579256 3.75194805,7.26340509 3.79090909,7.20704501 C3.81818182,7.17181996 3.9038961,7.06262231 3.98571429,6.97103718 Z M2.47012987,7.16125245 C2.5012987,7.1260274 2.63376623,6.96399217 2.76623377,6.80195695 C2.8987013,6.63992172 3.15584416,6.36868885 3.33506494,6.19960861 C3.68181818,5.87553816 3.71298701,5.762818 3.40519481,5.95655577 C3.15974026,6.10802348 2.84025974,6.40391389 2.65714286,6.64696673 C2.48961039,6.86888454 2.33766234,7.1260274 2.33766234,7.18590998 C2.33766234,7.24227006 2.41168831,7.22818004 2.47012987,7.16125245 Z M5.21688312,6.9851272 L5.33376623,6.85479452 L5.23246753,6.68571429 C5.17792208,6.59412916 5.1,6.49197652 5.06103896,6.46027397 C4.99090909,6.40391389 4.97922078,6.4074364 4.81168831,6.53072407 C4.71428571,6.60469667 4.63636364,6.68219178 4.63636364,6.70332681 C4.63636364,6.74559687 5.02597403,7.11545988 5.06883117,7.11545988 C5.08441558,7.11545988 5.15064935,7.0555773 5.21688312,6.9851272 Z M2.3025974,6.75616438 C2.54025974,6.39686888 2.93766234,5.98825832 3.22987013,5.80861057 C3.33896104,5.74168297 3.42857143,5.67475538 3.42857143,5.66066536 C3.42857143,5.64305284 3.35064935,5.55851272 3.25714286,5.46692759 C3.1012987,5.31898239 3.07792208,5.30841487 2.98831169,5.34363992 C2.82077922,5.41409002 2.38051948,5.81213307 2.23246753,6.02700587 C2.08441558,6.24892368 1.94805195,6.30880626 1.94805195,6.15381605 C1.94805195,5.9776908 2.34545455,5.5444227 2.80519481,5.21682975 L2.9025974,5.14637965 L2.75844156,5.09354207 C2.57532468,5.02309198 2.48181818,5.02309198 2.33766234,5.09001957 C2.13116883,5.18864971 1.94415584,5.53033268 1.88571429,5.92133072 C1.87012987,6.01643836 1.84285714,6.10450098 1.82337662,6.11506849 C1.73766234,6.16438356 1.72207792,6.06223092 1.77272727,5.8297456 C1.95194805,4.98082192 2.36883117,4.68493151 2.91428571,5.01956947 L3.04675325,5.10058708 L3.22207792,5.03365949 C3.31948052,4.99843444 3.42077922,4.9667319 3.45194805,4.9667319 C3.53766234,4.9667319 3.51428571,4.91037182 3.38961039,4.81526419 C3.12077922,4.6109589 2.62597403,4.57221135 2.25974026,4.72720157 C1.79220779,4.92446184 1.52727273,5.30489237 1.45714286,5.86849315 C1.41038961,6.2665362 1.61298701,6.73150685 1.94025974,6.97103718 C2.02207792,7.03091977 2.08441558,7.07671233 2.08831169,7.08023483 C2.08831169,7.08023483 2.18571429,6.93581213 2.3025974,6.75616438 Z M6.19480519,6.71741683 C6.19480519,6.69980431 6.15584416,6.63639922 6.10909091,6.57651663 C6.03116883,6.481409 6.02337662,6.4778865 5.9961039,6.53776908 C5.98051948,6.57299413 5.96493506,6.6927593 5.96493506,6.79843444 L5.96493506,6.99217221 L6.07792208,6.86888454 C6.14025974,6.80195695 6.19480519,6.73150685 6.19480519,6.71741683 Z M9.65844156,6.84422701 C9.53376623,6.54481409 9.3038961,6.30528376 9.14025974,6.30528376 C9.04285714,6.30528376 8.74675325,6.46731898 8.63766234,6.58003914 L8.56363636,6.65401174 L8.85584416,6.65048924 C9.1012987,6.64696673 9.18701299,6.66457926 9.36233766,6.74207436 C9.47922078,6.79138943 9.5961039,6.85831703 9.62337662,6.88649706 C9.69350649,6.96399217 9.70519481,6.94990215 9.65844156,6.84422701 Z M5.84025974,6.52720157 C5.84415584,6.37573386 5.82857143,6.3334638 5.75844156,6.29119374 C5.71168831,6.25949119 5.61428571,6.23483366 5.54805195,6.23483366 L5.42727273,6.23483366 L5.60649351,6.55890411 C5.8012987,6.9146771 5.83246753,6.9111546 5.84025974,6.52720157 Z M10.987013,6.481409 C10.8935065,6.36516634 10.7181818,6.23835616 10.5311688,6.15029354 C10.3714286,6.07632094 10.3363636,6.07984344 10.2857143,6.16086106 C10.2506494,6.22074364 10.274026,6.24187867 10.4727273,6.32289628 C10.5935065,6.37221135 10.7298701,6.44266145 10.7727273,6.4778865 C10.8545455,6.54481409 10.9324675,6.58003914 11.0181818,6.58356164 C11.0532468,6.58708415 11.0415584,6.5518591 10.987013,6.481409 Z M6.89220779,6.42504892 L7.09090909,6.32994129 L7.02467532,6.23483366 C6.82987013,5.96712329 6.84155844,5.9776908 6.5961039,6.00234834 C6.47142857,6.01643836 6.35454545,6.04109589 6.33506494,6.05870841 C6.31558442,6.07632094 6.37792208,6.17847358 6.48701299,6.30176125 C6.58831169,6.42152642 6.67792208,6.51663405 6.68571429,6.51663405 C6.68961039,6.51663405 6.78311688,6.47436399 6.89220779,6.42504892 Z M8.57142857,6.24540117 C8.57142857,6.21017613 8.41168831,6.24540117 8.36103896,6.29119374 C8.25584416,6.38277886 8.33376623,6.41448141 8.45844156,6.3334638 C8.52077922,6.29119374 8.57142857,6.25244618 8.57142857,6.24540117 Z M3.89220779,6.16790607 C3.80649351,6.06575342 3.8025974,6.06223092 3.72857143,6.118591 C3.65844156,6.17847358 3.65844156,6.18199609 3.80649351,6.23835616 C3.88831169,6.27005871 3.96233766,6.29119374 3.96623377,6.28414873 C3.97402597,6.28062622 3.94285714,6.22778865 3.89220779,6.16790607 Z M4.64805195,6.00234834 C4.74935065,5.95655577 4.83116883,5.9037182 4.83116883,5.88610568 C4.83116883,5.8332681 4.60519481,5.64305284 4.51558442,5.6183953 C4.43766234,5.59373777 4.31298701,5.66418787 4.02857143,5.88258317 L3.90779221,5.9776908 L4.04025974,6.1221135 L4.17272727,6.2665362 L4.31688312,6.17847358 C4.39480519,6.12915851 4.54285714,6.0481409 4.64805195,6.00234834 Z M7.5038961,6.21369863 C7.61688312,6.18551859 7.72207792,6.14324853 7.73766234,6.12563601 C7.78051948,6.06223092 7.41428571,5.94951076 7.2038961,5.96007828 L7.00909091,5.97064579 L7.12987013,6.1221135 C7.2,6.20313112 7.26233766,6.27005871 7.27402597,6.27005871 C7.28571429,6.27005871 7.38701299,6.24540117 7.5038961,6.21369863 Z M10.079551,6.0601636 C10.0660714,6.03769753 10.0346189,6.0287111 10.0121528,6.04668396 C9.98968675,6.0601636 9.98070033,6.0916161 9.99867318,6.11408218 C10.0121528,6.13654825 10.0436053,6.14553468 10.0660714,6.12756182 C10.0885375,6.11408218 10.0975239,6.08262968 10.079551,6.0601636 Z M9.36233766,5.84383562 C9.46363636,5.82622309 9.67012987,5.81213307 9.81818182,5.81213307 C10.2623377,5.81213307 10.2155844,5.70293542 9.66233766,5.46340509 C9.38961039,5.34363992 9.34675325,5.33659491 9,5.33659491 C8.7,5.33659491 8.59480519,5.35068493 8.44285714,5.41409002 C8.22857143,5.50567515 7.85454545,5.74168297 7.88571429,5.76986301 C7.8974026,5.77690802 8.03376623,5.81213307 8.18961039,5.84735812 C8.48961039,5.9072407 9.0038961,5.9072407 9.36233766,5.84383562 Z M3.88441558,5.74168297 C3.93896104,5.70293542 3.97402597,5.67123288 3.96233766,5.67123288 C3.90779221,5.67123288 3.74025974,5.75577299 3.74025974,5.78395303 C3.74025974,5.8297456 3.77922078,5.81917808 3.88441558,5.74168297 Z M5.72337662,5.65009785 C5.73506494,5.63953033 5.59090909,5.4739726 5.33376623,5.19921722 C5.31818182,5.1816047 5.25974026,5.17808219 5.20519481,5.19217221 L5.1038961,5.21330724 L5.24025974,5.37534247 C5.31428571,5.46340509 5.38831169,5.57612524 5.4,5.62544031 C5.42337662,5.70293542 5.43896104,5.70998043 5.56753247,5.6888454 C5.64545455,5.67475538 5.71558442,5.65714286 5.72337662,5.65009785 Z M7.44155844,5.67475538 C7.44155844,5.65714286 7.39090909,5.59373777 7.32857143,5.53385519 C7.19220779,5.4035225 7.04025974,5.38238748 6.81038961,5.46692759 C6.56883117,5.55146771 6.68961039,5.59726027 7.41428571,5.70293542 C7.42987013,5.70293542 7.44155844,5.69236791 7.44155844,5.67475538 Z M10.7415584,5.37181996 C10.9948052,4.93502935 11.0376623,4.50880626 10.8428571,4.26575342 C10.6597403,4.04031311 10.1025974,3.93111546 9.55324675,4.01565558 L9.27662338,4.05792564 L9.21038961,4.23757339 C9.17532468,4.33972603 9.07792208,4.54403131 8.9961039,4.69902153 C8.91038961,4.85048924 8.84415584,4.98082192 8.84415584,4.98786693 C8.84415584,4.99491194 8.88701299,5.00195695 8.93766234,5.00195695 C9.16363636,5.00195695 9.85324675,5.24853229 10.1415584,5.43170254 C10.2,5.4704501 10.2857143,5.49510763 10.3246753,5.48454012 C10.3792208,5.4704501 10.4025974,5.48454012 10.4025974,5.52681018 C10.4025974,5.59726027 10.4805195,5.67827789 10.538961,5.66066536 C10.5584416,5.65362035 10.6519481,5.52328767 10.7415584,5.37181996 Z M3.7987013,5.49158513 C3.90779221,5.43874755 4.14935065,5.35420744 4.34415584,5.29784736 L4.69090909,5.19921722 L4.55844156,5.14637965 C4.36753247,5.06888454 3.75194805,5.07240705 3.45974026,5.15342466 C3.33506494,5.18864971 3.23376623,5.22387476 3.23376623,5.23444227 C3.23376623,5.26614481 3.56493506,5.60078278 3.58441558,5.59021526 C3.5961039,5.58669276 3.69350649,5.5409002 3.7987013,5.49158513 Z M5.82467532,5.22387476 C5.80519481,5.06888454 5.78571429,5.037182 5.73506494,5.05127202 C5.7,5.06183953 5.62207792,5.07945205 5.56363636,5.09354207 C5.5012987,5.10410959 5.45454545,5.12172211 5.45454545,5.13228963 C5.45454545,5.14285714 5.53636364,5.23796477 5.64155844,5.34363992 C5.84805195,5.56555773 5.87142857,5.54794521 5.82467532,5.22387476 Z M6.38961039,5.0167319 C6.38961039,4.9917319 6.35454545,4.9667319 6.30779221,4.9667319 C6.26493506,4.9667319 6.24155844,4.9917319 6.25324675,5.0167319 C6.26493506,5.0467319 6.3038961,5.0667319 6.33506494,5.0667319 C6.36623377,5.0667319 6.38961039,5.0467319 6.38961039,5.0167319 Z M8.68831169,4.86105675 C8.78961039,4.73072407 9.07792208,4.18121331 9.05454545,4.16007828 C9.04675325,4.14951076 8.89480519,4.20587084 8.72337662,4.27984344 C8.45844156,4.39960861 8.41558442,4.43131115 8.43506494,4.49119374 C8.44675325,4.52994129 8.46623377,4.63209393 8.47792208,4.72015656 C8.51688312,5.00900196 8.55194805,5.03365949 8.68831169,4.86105675 Z M8.31818182,4.80117417 C8.26363636,4.52641879 8.25194805,4.51232877 8.13506494,4.58982387 C8.08051948,4.62857143 8.07662338,4.66027397 8.11168831,4.78356164 C8.14675325,4.90684932 8.17012987,4.93150685 8.24805195,4.93150685 C8.33376623,4.93150685 8.33766234,4.92093933 8.31818182,4.80117417 Z M6.43636364,4.7553816 C6.47532468,4.7553816 6.53376623,4.70606654 6.56493506,4.64970646 L6.62727273,4.54403131 L6.3038961,4.11780822 L5.98051948,3.69158513 L5.96883117,4.15655577 C5.96103896,4.54050881 5.96883117,4.63913894 6.02337662,4.70958904 C6.07792208,4.78708415 6.10519481,4.79412916 6.22597403,4.77651663 C6.30779221,4.76594912 6.4012987,4.7553816 6.43636364,4.7553816 Z M8.11948052,4.42778865 C8.18571429,4.38199609 8.18181818,4.37495108 8.06493506,4.28688845 C7.95584416,4.20234834 7.83116883,4.16007828 7.83116883,4.20587084 C7.83116883,4.2446184 7.9987013,4.47358121 8.02207792,4.47358121 C8.03766234,4.47358121 8.08051948,4.45244618 8.11948052,4.42778865 Z" id="Shape"></path>
            </g>
        </g>
    </g>
</svg>