<?xml version="1.0" encoding="UTF-8"?>
<svg width="18px" height="18px" viewBox="0 0 18 18" version="1.1" xmlns="http://www.w3.org/2000/svg" xmlns:xlink="http://www.w3.org/1999/xlink">
    <title>Artboard</title>
    <g id="Artboard" stroke="none" stroke-width="1" fill="none" fill-rule="evenodd">
        <g id="Vc.ru-logo" fill="#FFFFFF" fill-rule="nonzero">
            <g id="Group" transform="translate(9.049846, 9.194433) scale(-1, 1) rotate(-180.000000) translate(-9.049846, -9.194433) translate(0.049846, 0.694433)">
                <path d="M13.3643077,16.5831 C12.024,16.2212667 10.9716923,15.1413333 10.6116923,13.7719333 C10.4953846,13.3321667 10.4953846,12.3747 10.6116923,11.9349333 C10.9772308,10.5432667 11.9963077,9.50786667 13.3643077,9.12376667 C14.1673846,8.9011 15.3470769,9.00686667 16.0504615,9.36313333 C16.4326154,9.56353333 16.9587692,9.9699 17.1969231,10.2593667 L17.3963077,10.5043 L16.9310769,10.8717 C16.6707692,11.0721 16.4547692,11.2391 16.4436923,11.2391 C16.4326154,11.2391 16.2941538,11.1222 16.1390769,10.9719 C14.8652308,9.7695 12.888,10.0979333 12.1624615,11.6399 C11.6307692,12.7699333 11.8578462,14.0502667 12.7384615,14.8741333 C13.0541538,15.1691667 13.3421538,15.3306 13.7796923,15.4419333 C14.3612308,15.5922333 15.1643077,15.5087333 15.6793846,15.2471 L15.9009231,15.1357667 L15.9009231,14.4956 L15.9009231,13.8554333 L16.5378462,13.8554333 L17.1747692,13.8554333 L17.1747692,14.7683667 L17.1747692,15.6868667 L16.9698462,15.8594333 C16.704,16.0821 15.9729231,16.4383667 15.5409231,16.5552667 C15.3470769,16.6109333 14.9095385,16.6554667 14.4886154,16.6721667 C13.8904615,16.6888667 13.6966154,16.6777333 13.3643077,16.5831 Z" id="Path"></path>
                <path d="M2.05476923,15.9151 L2.05476923,15.3027667 L2.20984615,15.2972 C2.29292308,15.2972 2.54769231,15.2972 2.77476923,15.2972 C3.00184615,15.3027667 3.22338462,15.2805 3.26769231,15.2526667 C3.312,15.2248333 3.83815385,13.8276 4.43630769,12.1464667 L5.52738462,9.09593333 L6.12553846,9.09593333 L6.72923077,9.09593333 L7.87569231,12.1854333 L9.02215385,15.2749333 L9.63692308,15.2916333 L10.2572308,15.3083333 L10.2406154,15.9039667 L10.224,16.4996 L9.144,16.5163 L8.064,16.5274333 L7.15015385,13.8498667 C6.65169231,12.3802667 6.22523077,11.1667333 6.20861538,11.1556 C6.18646154,11.1444667 5.76,12.3413 5.256,13.8164667 L4.34215385,16.4996 L3.19569231,16.5163 L2.05476923,16.5274333 L2.05476923,15.9151 Z" id="Path"></path>
                <path d="M2.56430769,6.94163333 L2.58092308,6.36826667 L3.17907692,6.35156667 L3.77169231,6.33486667 L3.77169231,3.86326667 L3.77169231,1.3861 L3.16246154,1.3861 L2.54769231,1.3861 L2.56430769,0.790466667 L2.58092308,0.189266667 L5.39446154,0.172566667 L8.20246154,0.161433333 L8.20246154,0.773766667 L8.20246154,1.3861 L6.624,1.3861 L5.04553846,1.3861 L5.04553846,2.85013333 C5.04553846,4.47003333 5.07876923,4.7094 5.38892308,5.2939 C5.57169231,5.63903333 5.93723077,6.00643333 6.264,6.17343333 C6.43569231,6.2625 6.94523077,6.3961 7.10584615,6.3961 C7.14461538,6.3961 7.15569231,6.21796667 7.13907692,5.83943333 L7.11138462,5.28276667 L7.74276923,5.28276667 L8.36861538,5.28276667 L8.36861538,6.3961 L8.36861538,7.50943333 L7.66523077,7.50943333 C6.86769231,7.50943333 6.552,7.44263333 6.05353846,7.17543333 C5.73784615,7.00843333 5.23938462,6.5464 5.04,6.2291 C4.95138462,6.08993333 4.94584615,6.0955 4.91261538,6.50743333 C4.896,6.73566667 4.87384615,7.05296667 4.86276923,7.20326667 L4.85169231,7.4816 L3.69969231,7.4983 L2.54769231,7.50943333 L2.56430769,6.94163333 Z" id="Path"></path>
                <path d="M9.75323077,6.86926667 L9.75323077,6.2291 L10.3070769,6.2291 L10.8609231,6.2291 L10.8609231,4.26406667 C10.8609231,2.1543 10.8775385,1.9706 11.1655385,1.34156667 C11.3316923,0.979733333 11.7747692,0.506566667 12.1181538,0.3173 C12.5833846,0.0612333333 12.9766154,-0.0222666667 13.5969231,0.00556666667 C14.0621538,0.0222666667 14.2116923,0.0501 14.4830769,0.178133333 C14.9150769,0.378533333 15.2252308,0.640166667 15.4910769,1.02983333 L15.7070769,1.34713333 L15.8012308,0.7682 C15.8510769,0.4509 15.8953846,0.1837 15.8953846,0.172566667 C15.9009231,0.167 16.344,0.167 16.8867692,0.172566667 L17.8670769,0.189266667 L17.8836923,0.790466667 L17.9003077,1.3861 L17.4073846,1.3861 L16.9144615,1.3861 L16.8812308,2.51613333 C16.8590769,3.13403333 16.8424615,4.509 16.8424615,5.5778 L16.8424615,7.50943333 L15.5686154,7.50943333 L14.2947692,7.50943333 L14.2947692,6.86926667 L14.2947692,6.2291 L14.9316923,6.2291 L15.5686154,6.2291 L15.5686154,4.70383333 C15.5686154,3.0728 15.5353846,2.74436667 15.3138462,2.29346667 C14.8763077,1.3861 13.8073846,0.924066667 13.0043077,1.29146667 C12.6498462,1.4529 12.4061538,1.74793333 12.2621538,2.1877 C12.1790769,2.43263333 12.168,2.81116667 12.1458462,4.9933 L12.1292308,7.50943333 L10.9384615,7.50943333 L9.75323077,7.50943333 L9.75323077,6.86926667 Z" id="Path"></path>
                <path d="M0.0443076923,1.4028 C0.0276923077,1.38053333 0.0110769231,1.09106667 0.0110769231,0.762633333 L0,0.161433333 L0.670153846,0.161433333 L1.34030769,0.161433333 L1.32369231,0.790466667 L1.30707692,1.41393333 L0.686769231,1.43063333 C0.348923077,1.4362 0.0553846154,1.42506667 0.0443076923,1.4028 Z" id="Path"></path>
            </g>
        </g>
    </g>
</svg>