<?xml version="1.0" encoding="UTF-8"?>
<svg width="18px" height="18px" viewBox="0 0 18 18" version="1.1" xmlns="http://www.w3.org/2000/svg" xmlns:xlink="http://www.w3.org/1999/xlink">
    <title>Artboard</title>
    <g id="Artboard" stroke="none" stroke-width="1" fill="none" fill-rule="evenodd">
        <g id="logo-cnews" transform="translate(0.000000, 6.000000)" fill="#FFFFFF" fill-rule="nonzero">
            <g id="Group" transform="translate(9.000000, 2.500000) scale(-1, 1) rotate(-180.000000) translate(-9.000000, -2.500000) translate(0.000000, 0.500000)">
                <path d="M1.7098546,3.465 C1.25912763,3.42416667 0.869466882,3.23458333 0.523424879,2.8875 C-0.15993538,2.20208333 -0.17447496,1.1025 0.491437803,0.434583333 C0.822940226,0.105 1.16025848,-0.0204166667 1.65751212,0.00875 C1.98029079,0.02625 2.2187399,0.0991666667 2.46882068,0.2625 C2.64911147,0.379166667 2.87883683,0.574583333 2.87883683,0.6125 C2.87883683,0.624166667 2.84975767,0.644583333 2.81486268,0.662083333 C2.76542811,0.6825 2.71017771,0.667916667 2.54151858,0.580416667 C2.17802908,0.390833333 1.81163166,0.396666667 1.40743134,0.595 C1.04394184,0.775833333 0.782229402,1.12 0.668820679,1.56333333 C0.456542811,2.39458333 0.860743134,3.23458333 1.47722132,3.2375 C1.66042003,3.2375 1.75347334,3.19375 2.00646204,2.98958333 C2.24200323,2.79708333 2.29725363,2.77083333 2.43101777,2.77083333 C2.57932149,2.77083333 2.76252019,2.95166667 2.76252019,3.0975 C2.76252019,3.31333333 2.56187399,3.43583333 2.16639742,3.46791667 C2.03844911,3.47666667 1.83198708,3.47666667 1.7098546,3.465 Z" id="Path"></path>
                <path d="M6.63004847,3.46791667 C6.34216478,3.43583333 6.05718901,3.31333333 5.6733441,3.05666667 L5.46106624,2.91083333 L5.47851373,3.06541667 C5.4901454,3.15291667 5.50759289,3.27833333 5.51631664,3.34833333 C5.53085622,3.465 5.5279483,3.47083333 5.46106624,3.47083333 C5.36510501,3.47083333 4.55670436,3.16458333 4.54216478,3.12375 C4.53634895,3.10625 4.60323102,3.02458333 4.69337641,2.94291667 C4.79806139,2.84666667 4.86785137,2.75625 4.88820679,2.68916667 C4.9085622,2.61625 4.91437803,2.23125 4.9085622,1.54583333 C4.89983845,0.635833333 4.89402262,0.49875 4.85040388,0.42 C4.79515347,0.317916667 4.65557351,0.239166667 4.46946688,0.21 C4.37350565,0.1925 4.34442649,0.175 4.33861066,0.1225 L4.32988691,0.0583333333 L5.20516963,0.0583333333 L6.08045234,0.0583333333 L6.07172859,0.1225 C6.06591276,0.175 6.03392569,0.1925 5.89434572,0.21875 C5.6907916,0.259583333 5.58029079,0.335416667 5.53376414,0.469583333 C5.51050081,0.539583333 5.49886914,0.895416667 5.49886914,1.66833333 L5.49596123,2.765 L5.59192246,2.84666667 C5.64135703,2.89041667 5.75767367,2.96041667 5.84491115,3.00125 C5.9815832,3.06541667 6.04555735,3.07708333 6.26655897,3.07708333 C6.57479806,3.07708333 6.71147011,3.03625 6.86849758,2.89333333 C7.00516963,2.77083333 7.07495961,2.63666667 7.12148627,2.42666667 C7.16219709,2.22833333 7.16510501,0.63875 7.12439418,0.49 C7.07786753,0.32375 6.98772213,0.268333333 6.65331179,0.1925 C6.59806139,0.180833333 6.57189015,0.154583333 6.57189015,0.116666667 C6.57189015,0.0583333333 6.58933764,0.0583333333 7.45008078,0.0641666667 C8.25557351,0.0729166667 8.33117932,0.0758333333 8.33990307,0.1225 C8.3457189,0.1575 8.32536349,0.177916667 8.26720517,0.189583333 C8.00840065,0.239166667 7.86882068,0.30625 7.80775444,0.408333333 C7.75250404,0.504583333 7.74959612,0.571666667 7.73214863,1.64791667 C7.72051696,2.36541667 7.70306947,2.82041667 7.68271405,2.88166667 C7.59838449,3.13541667 7.42681745,3.33375 7.22617124,3.4125 C7.10113086,3.46208333 6.819063,3.48833333 6.63004847,3.46791667 Z" id="Path"></path>
                <path d="M9.57867528,3.46791667 C8.88949919,3.38916667 8.32245557,2.86125 8.15379645,2.14375 C8.09563813,1.88416667 8.09563813,1.44083333 8.15670436,1.21041667 C8.23521809,0.904166667 8.36898223,0.67375 8.58998384,0.449166667 C8.92439418,0.11375 9.27915994,-0.0204166667 9.75896607,0.00583333333 C10.0788368,0.0233333333 10.279483,0.09625 10.5615509,0.300416667 C10.8087237,0.478333333 11.0966074,0.834166667 11.0442649,0.895416667 C10.9948304,0.956666667 10.9541195,0.939166667 10.8058158,0.790416667 C10.5993538,0.580416667 10.3725363,0.484166667 10.0759289,0.484166667 C9.7822294,0.484166667 9.56995153,0.548333333 9.33441034,0.705833333 C8.9098546,0.98875 8.6917609,1.51083333 8.74701131,2.11458333 L8.76736672,2.34791667 L9.86655897,2.35666667 C10.7970921,2.3625 10.9628433,2.36833333 10.9628433,2.40625 C10.9628433,2.50833333 10.8901454,2.76791667 10.8261712,2.89625 C10.7243942,3.10041667 10.5731826,3.25208333 10.3783522,3.35125 C10.2242326,3.43 10.1486268,3.4475 9.85783522,3.4825 C9.81712439,3.48541667 9.69208401,3.47958333 9.57867528,3.46791667 Z M9.71243942,3.29583333 C9.86946688,3.25208333 10.0206785,3.10916667 10.1166397,2.90791667 C10.1660743,2.80875 10.212601,2.69208333 10.2213247,2.65125 L10.2416801,2.5725 L9.63392569,2.555 C9.30242326,2.54333333 8.97964459,2.52875 8.92148627,2.52 C8.78772213,2.49958333 8.78481422,2.52291667 8.87495961,2.76208333 C8.91857835,2.88166667 8.98546042,2.97791667 9.09886914,3.09166667 C9.31114701,3.30458333 9.48271405,3.36 9.71243942,3.29583333 Z" id="Shape"></path>
                <path d="M16.7903069,3.46791667 C16.5751212,3.44166667 16.4355412,3.38916667 16.2610662,3.27541667 C15.9993538,3.10041667 15.8772213,2.87 15.8801292,2.55208333 C15.8830372,2.09125 16.0836834,1.86666667 16.8019386,1.505 C17.098546,1.35625 17.2991922,1.19 17.3718901,1.03833333 C17.3980614,0.982916667 17.4184168,0.86625 17.4184168,0.775833333 C17.4184168,0.422916667 17.1857835,0.1925 16.8310178,0.195416667 C16.4558966,0.20125 16.1592892,0.475416667 16.0051696,0.97125 C15.9528271,1.1375 15.9121163,1.16958333 15.8248788,1.11125 C15.7928918,1.09083333 15.7899838,1.015 15.8045234,0.72625 C15.8161551,0.527916667 15.8365105,0.335416667 15.8510501,0.300416667 C15.9063005,0.151666667 16.3657512,0 16.755412,0 C17.2846527,0 17.7179321,0.233333333 17.9127625,0.618333333 C17.9854604,0.77 18,0.828333333 18,1.01791667 C18,1.44375 17.8342488,1.64791667 17.1886914,2.00958333 C16.5838449,2.34791667 16.441357,2.51125 16.4646204,2.835 C16.4791599,3.01291667 16.5315024,3.115 16.6681745,3.21708333 C16.7641357,3.29 16.9996769,3.31333333 17.1392569,3.26666667 C17.2904685,3.21708333 17.4852989,2.98666667 17.5725363,2.75041667 C17.6219709,2.61041667 17.6597738,2.54916667 17.6975767,2.54333333 C17.8080775,2.52875 17.8197092,2.56666667 17.8022617,2.91375 L17.7877221,3.24333333 L17.6975767,3.29875 C17.4882068,3.43 17.0781906,3.50583333 16.7903069,3.46791667 Z" id="Path"></path>
                <path d="M10.6138934,3.36 C10.6138934,3.32208333 10.6516963,3.29875 10.7418417,3.2725 C10.9192246,3.22583333 11.0239095,3.12666667 11.1256866,2.91083333 C11.1751212,2.80875 11.4600969,2.11458333 11.7625202,1.365 C12.2510501,0.14875 12.3150242,0 12.3731826,0 C12.428433,0 12.4894992,0.128333333 12.8966074,1.12291667 C13.1495961,1.74125 13.3647819,2.24583333 13.3735057,2.24583333 C13.3822294,2.24583333 13.5886914,1.74125 13.8271405,1.12291667 C14.2051696,0.14875 14.2720517,0 14.3243942,0 C14.3738288,0 14.4668821,0.186666667 14.9466882,1.26291667 C15.2549273,1.95416667 15.5631664,2.63375 15.6329564,2.77375 C15.7754443,3.0625 15.9324717,3.22 16.1243942,3.2725 C16.2174475,3.29875 16.2552504,3.32208333 16.2552504,3.36 C16.2552504,3.40958333 16.2116317,3.4125 15.6155089,3.4125 C15.0019386,3.4125 14.9757674,3.40958333 14.9757674,3.35708333 C14.9757674,3.31041667 15.0048465,3.29583333 15.1095315,3.27833333 C15.1822294,3.26958333 15.2781906,3.22875 15.3189015,3.19375 C15.4206785,3.10625 15.4177706,2.96625 15.3101777,2.63083333 C15.1793215,2.21666667 14.6151858,0.875 14.571567,0.875 C14.5366721,0.875 13.7835218,2.94 13.7835218,3.03625 C13.7835218,3.17041667 13.8533118,3.23166667 14.0481422,3.2725 C14.1819063,3.29875 14.2197092,3.31916667 14.2197092,3.36 C14.2197092,3.40958333 14.1702746,3.4125 13.4200323,3.4125 C12.6552504,3.4125 12.6203554,3.40958333 12.6203554,3.35708333 C12.6203554,3.31625 12.6552504,3.29291667 12.7512116,3.26958333 C12.9402262,3.22291667 13.0652666,3.09458333 13.1670436,2.84958333 C13.3124394,2.49958333 13.326979,2.5725 12.9518578,1.68291667 C12.7657512,1.23958333 12.6029079,0.875 12.5941842,0.875 C12.5592892,0.875 11.7974152,2.87875 11.7857835,3.00708333 C11.7712439,3.12666667 11.7799677,3.14708333 11.8497577,3.2025 C11.8904685,3.23458333 11.9835218,3.2725 12.0562197,3.28416667 C12.1550889,3.29875 12.184168,3.31333333 12.184168,3.35708333 C12.184168,3.40958333 12.149273,3.4125 11.3990307,3.4125 C10.6633279,3.4125 10.6138934,3.40958333 10.6138934,3.36 Z" id="Path"></path>
                <path d="M3.05912763,2.63083333 C2.88465267,2.56666667 2.77996769,2.49083333 2.91373183,2.52291667 C3.03004847,2.55208333 3.18416801,2.49083333 3.28594507,2.37416667 C3.35864297,2.28958333 3.37318255,2.24875 3.37318255,2.12916667 C3.37318255,2.00958333 3.35864297,1.96875 3.28594507,1.88416667 C3.16962843,1.75291667 3.0358643,1.70625 2.88174475,1.75 C2.69273021,1.79958333 2.56478191,1.99208333 2.59386107,2.1875 C2.60258481,2.23708333 2.60258481,2.275 2.59676898,2.275 C2.59386107,2.275 2.55896607,2.21958333 2.52407108,2.1525 C2.46591276,2.04458333 2.45718901,1.98333333 2.45718901,1.73541667 C2.45718901,1.46708333 2.46300485,1.43208333 2.54151858,1.28916667 C2.75379645,0.904166667 3.21033926,0.711666667 3.62035541,0.83125 C4.04200323,0.95375 4.30371567,1.28916667 4.3095315,1.71791667 C4.31243942,2.03 4.21647819,2.25458333 3.99547658,2.44708333 C3.75121163,2.66291667 3.3644588,2.73875 3.05912763,2.63083333 Z" id="Path"></path>
            </g>
        </g>
    </g>
</svg>